<svg xmlns="http://www.w3.org/2000/svg" width="75" height="75" viewBox="0 0 75 75">
    <g fill="none" fill-rule="evenodd">
        <circle cx="37.5" cy="37.5" r="37.5" fill="#565E56" opacity=".3"/>
        <g fill="#FFF" fill-rule="nonzero">
            <path d="M.144 15.3c.018-.054.036-.126.054-.18.108-.81.54-1.386 1.278-1.728.432-.216.9-.324 1.386-.378.378-.054.774-.054 1.152-.054h.774c.018-.018.018-.018.018-.036.018-.252.018-.522-.036-.774-.108-.486-.396-.738-.9-.81-.18-.018-.378-.018-.558.018-.432.108-.684.378-.792.81-.018.054-.018.09-.036.162H.414c-.018-.108.018-.216.036-.324.198-.972.774-1.602 1.674-1.962.54-.216 1.098-.27 1.674-.27.504 0 .99.054 1.458.216.288.09.558.234.81.432.504.396.774.9.864 1.512.036.216.054.432.054.666v5.112H4.86v-.846l-.072.072c-.396.522-.936.81-1.584.918l-.432.054H2.7c-.054 0-.108-.018-.162-.018-.252-.018-.486-.054-.72-.108-.9-.27-1.458-.846-1.584-1.8 0-.054-.036-.108-.054-.162-.036-.198-.036-.36-.036-.522zm4.662-.918h-.288c-.36.018-.738.018-1.098.036-.234.018-.468.072-.684.198-.216.126-.36.306-.396.558-.018.108-.018.234-.018.342.018.396.234.684.63.774.414.108.828.072 1.224-.126.342-.18.576-.468.612-.864.018-.288.018-.594.018-.918zM28.062 17.892c-.09 0-.162-.018-.252-.018-.522-.036-1.044-.144-1.53-.36-.882-.414-1.44-1.116-1.728-2.034-.126-.396-.18-.792-.198-1.206-.036-.63 0-1.26.18-1.872.216-.738.594-1.386 1.206-1.872.504-.396 1.08-.63 1.71-.702.666-.09 1.314-.054 1.962.162 1.134.378 1.8 1.17 2.07 2.322.09.36.108.738.126 1.116v.828c0 .036 0 .072-.018.126h-5.04c.018.108.018.198.018.27.036.234.072.468.162.684.234.594.666.918 1.296.954.216.018.432 0 .648-.072.414-.126.702-.396.846-.792.018-.036.036-.09.054-.126l.018-.018h1.98c0 .054-.018.108-.018.144-.234 1.08-.882 1.782-1.908 2.178-.396.162-.828.234-1.242.252-.072 0-.144.018-.216.018-.036.018-.09.018-.126.018zm-1.476-4.986c.18.036 2.808.018 2.898-.018-.018-.342-.072-.684-.234-.99-.162-.306-.414-.504-.756-.576-.09-.018-.18-.036-.27-.036-.396-.036-.774.036-1.08.324-.36.36-.486.828-.558 1.296zM64.008 17.892c-.09 0-.18-.018-.27-.018-.504-.036-.99-.126-1.458-.342-.9-.414-1.476-1.098-1.782-2.034-.234-.702-.252-1.44-.198-2.178.036-.522.144-1.026.36-1.494.522-1.134 1.404-1.8 2.628-1.998.612-.108 1.224-.072 1.818.072 1.224.324 1.98 1.098 2.286 2.304.072.27.108.54.126.828 0 .036.018.09.018.126v1.188h-5.058c.018.144.018.252.036.378.054.324.126.63.288.9.162.27.396.468.702.576.306.09.612.108.918.054.522-.09.882-.378 1.044-.882.018-.036.018-.072.036-.09.198-.036 1.89-.018 1.98.018v.126c0 .036-.018.054-.018.09-.216.9-.756 1.566-1.584 1.98-.486.234-.99.342-1.512.378-.09 0-.18.018-.27.018h-.09zm1.404-4.968c-.018-.36-.072-.702-.234-1.008-.162-.288-.414-.486-.738-.558l-.27-.054c-.612-.054-1.116.18-1.404.756-.126.252-.198.504-.234.774v.072c.972.018 1.926.018 2.88.018zM49.05 17.892c-.054 0-.108-.018-.162-.018-.234-.018-.468-.054-.684-.126-.756-.252-1.188-.792-1.404-1.548-.09-.306-.126-.612-.126-.936v-5.166-.144h2.178v4.86c0 .198 0 .396.054.594.108.45.414.72.882.756.198.018.396.018.594-.036.522-.144.828-.486.918-1.008.018-.126.036-.252.036-.396v-4.608-.162c.108-.036 1.962-.036 2.16-.018v7.74c-.09.036-1.944.036-2.16.018v-.522c0-.18 0-.342-.018-.522-.018.036-.036.072-.054.09-.378.63-.954.99-1.674 1.098-.108.018-.216.018-.342.036-.036 0-.072.018-.126.018h-.072zM11.844 17.892c-.09 0-.162-.018-.252-.018-.54-.036-1.062-.144-1.548-.396-.846-.432-1.368-1.134-1.638-2.016-.198-.63-.234-1.296-.198-1.962.036-.504.108-1.008.306-1.476.504-1.224 1.422-1.944 2.718-2.16.702-.126 1.404-.072 2.088.162 1.044.36 1.674 1.098 1.926 2.16.036.144.054.306.072.45v.09h-2.07c-.018-.054-.036-.126-.054-.18-.036-.126-.072-.234-.126-.36-.234-.522-.684-.738-1.242-.702-.54.054-.9.324-1.134.81-.162.306-.234.648-.252.99-.036.522-.036 1.026.054 1.548.036.216.09.432.198.63.27.594.792.864 1.44.81.594-.054.972-.414 1.17-.954.054-.144.09-.288.126-.432h1.962c.018.126-.018.234-.036.342-.126.72-.414 1.35-.954 1.836-.432.396-.936.63-1.512.738-.252.054-.522.054-.774.09-.036 0-.072.018-.126.018-.072-.018-.108-.018-.144-.018zM19.926 17.892c-.09 0-.162-.018-.252-.018-.576-.036-1.134-.162-1.638-.45-.774-.414-1.26-1.062-1.53-1.89-.144-.432-.216-.864-.234-1.314-.036-.63 0-1.242.18-1.836.252-.882.738-1.602 1.548-2.088.486-.288 1.008-.45 1.566-.504.63-.054 1.26-.018 1.854.198 1.026.36 1.656 1.098 1.908 2.16.036.144.054.288.072.432v.09h-2.07l-.054-.162c-.036-.126-.072-.234-.126-.36-.234-.522-.666-.756-1.242-.702-.522.036-.9.306-1.134.774-.162.324-.252.666-.27 1.026-.036.522-.036 1.026.054 1.548.036.216.108.432.198.648.288.594.792.846 1.422.792.558-.054.936-.378 1.152-.882.072-.162.108-.324.162-.504h1.962c-.018.126-.018.234-.036.342-.126.738-.432 1.386-1.008 1.89-.468.396-1.008.63-1.602.738-.216.036-.414.036-.63.072-.036 0-.072.018-.126.018-.054-.018-.09-.018-.126-.018zM39.456.108c.054.018.09.054.144.072 2.106.846 4.23 1.71 6.336 2.556.144.054.126.036.126.198V4.464c-2.214.9-4.428 1.782-6.642 2.682v-2.07c1.278-.468 2.556-.954 3.834-1.422v-.036c-1.278-.504-2.556-.99-3.834-1.494V.108h.036zM32.94 9.954h2.16v1.08h.018c.018-.036.054-.072.072-.108.414-.648 1.026-.99 1.764-1.116.378-.054.756-.054 1.134.036.738.162 1.224.612 1.476 1.314.144.414.216.828.216 1.26v5.274h-2.16v-.162-4.662c0-.162-.018-.306-.036-.468-.072-.504-.36-.774-.864-.846-.234-.036-.468-.018-.702.036-.486.144-.774.486-.882.972-.036.144-.036.288-.036.45v4.68c-.108.036-1.998.036-2.16.018V9.954zM41.67 11.556h-.9v-1.62h.882V8.478c.72-.288 1.44-.594 2.178-.882.036.054.018.108.018.162v2.196h1.458c.036.108.036 1.404.018 1.62h-1.476V15.246c0 .108.018.234.036.342.072.324.288.504.63.522.27.018.522 0 .792-.09.018 0 .036-.018.072-.018v1.692c-.072.018-.144.036-.234.054-.666.144-1.332.162-1.98-.018-.504-.126-.9-.378-1.17-.846-.18-.306-.27-.63-.288-.972-.018-.18-.018-.378-.018-.558v-3.582c-.018-.09-.018-.144-.018-.216zM57.294 11.304c.45-.99 1.206-1.476 2.304-1.458v2.124c-.054 0-.126.018-.18.018-.342 0-.684.036-1.008.144-.09.036-.198.072-.288.108-.468.216-.738.594-.81 1.098-.018.162-.036.324-.036.486v3.888h-2.16V9.954h2.16v1.332s.018 0 .018.018z" transform="translate(3 27)"/>
        </g>
    </g>
</svg>
