<svg xmlns="http://www.w3.org/2000/svg" width="75" height="75" viewBox="0 0 75 75">
    <g fill="none" fill-rule="evenodd">
        <circle cx="37.5" cy="37.5" r="37.5" fill="#565E56" opacity=".3"/>
        <path fill="#FFF" fill-rule="nonzero" d="M7.663 30.206c.149 1.616.251 5.647.251 7.125 0 1.356-.02 5.903-.275 7.865l-.03.16 8.889.002c4.343 0 8.976-1.105 8.976-4.197 0-1.94-1.752-3.377-5.044-4.167 2.415-.512 4.06-1.852 4.06-3.397 0-2.517-3.637-3.483-7.034-3.54l-9.805-.01.012.159zm6.866 1.555c3.71.013 5.088.625 5.088 2.242 0 .436-.164.816-.493 1.135-.712.676-2.128 1.024-3.883.957h-.087l-1.025 2.153h1.038c2.045-.058 3.82.463 4.73 1.353.423.413.633.877.633 1.383 0 1.707-1.863 2.576-5.516 2.576-.617 0-1.608-.003-2.245-.035-.132-2.238-.142-5.29-.142-6.194 0-1.063.06-3.44.147-5.471.582-.073 1.168-.106 1.755-.099zm31.435-1.715h-4.306l.183 3.856c.075 1.92.154 3.876.315 5.773-.293-.58-.54-.901-1.826-2.421-.042-.056-4.52-5.593-6.08-7.16l-.045-.048h-5.027l.008.152c.15 1.614.253 5.647.253 7.133 0 1.35-.02 5.903-.28 7.863l-.02.154h4.462l-.01-.144c-.261-3.755-.261-7.518-.261-11.154v-.01c.153.433.363.836 1.065 1.669.077.09 7.744 9.052 8.137 9.586l.037.053h3.59l-.018-.154c-.27-1.966-.286-6.512-.286-7.863 0-1.486.107-5.53.251-7.133l.021-.152h-.163zm5.195.15c.143 1.623.252 5.65.252 7.135 0 1.35-.02 5.898-.287 7.859l-.015.157h5.32l-.016-.157c-.19-1.4-.254-4.088-.275-6.16.217.01.978.04.978.04l.744.027c7.016 0 10.423-1.507 10.423-4.614 0-3.54-4.776-4.361-8.78-4.438h-8.357l.013.15zm6.518 1.696c2.491-.038 4.247.372 5.09 1.206.375.372.567.838.567 1.385 0 2.222-3.098 2.68-5.696 2.68l-1.05-.023s-.264-.026-.425-.048c-.02-.508-.026-1.173-.026-1.936 0-.977.013-2.094.065-3.168.49-.053.982-.085 1.475-.096z"/>
    </g>
</svg>
