<svg xmlns="http://www.w3.org/2000/svg" width="20" height="17" viewBox="0 0 20 17">
    <g fill="none" fill-rule="evenodd">
        <g stroke="#ECF805" stroke-linecap="round" stroke-width="2">
            <path d="M12.008 5.015L12.008 9.015 16.008 9.015" transform="translate(-5 -6) translate(6 7) scale(-1 1) rotate(45 0 -26.802)"/>
            <path d="M11 3L11 11" transform="translate(-5 -6) translate(6 7) matrix(0 1 1 0 4 -4)"/>
            <path stroke-linejoin="round" d="M11 2.5V1c0-.552-.448-1-1-1H1C.448 0 0 .448 0 1v13c0 .552.448 1 1 1h9c.552 0 1-.448 1-1v-1.5" transform="translate(-5 -6) translate(6 7)"/>
        </g>
    </g>
</svg>
