<svg xmlns="http://www.w3.org/2000/svg" width="94" height="121" viewBox="0 0 94 121">
    <g fill="none" fill-rule="evenodd">
        <path fill="#212A21" d="M15 0h64c8.284 0 15 6.716 15 15v91c0 8.284-6.716 15-15 15H15c-8.284 0-15-6.716-15-15V15C0 6.716 6.716 0 15 0z"/>
        <g stroke="#FFF" stroke-width="2">
            <path d="M19.968 16.169l.024-12.177c.004-2.206 1.794-3.992 4-3.992H40c2.21 0 4 1.79 4 4v52c0 2.21-1.79 4-4 4H4c-2.21 0-4-1.79-4-4V24.04c0-2.209 1.79-4 4-4h.04l11.888.12c2.209.023 4.017-1.75 4.04-3.959v-.032z" transform="translate(26 34)"/>
            <path d="M21.756 0H40c2.21 0 4 1.79 4 4v52c0 2.21-1.79 4-4 4H4c-2.21 0-4-1.79-4-4V23.316c0-1.003.377-1.969 1.055-2.707L18.811 1.293C19.57.469 20.637 0 21.756 0z" transform="translate(26 34)"/>
        </g>
    </g>
</svg>
