<svg xmlns="http://www.w3.org/2000/svg" width="52" height="52" viewBox="0 0 52 52">
    <g fill="none" fill-rule="evenodd" stroke-width="2">
        <rect width="50" height="50" x="1" y="1" stroke="#565E56" rx="25"/>
        <g stroke="#FFF">
            <path stroke-linejoin="round" d="M.5.786C1.732.262 2.843 0 3.833 0c.99 0 2.38.262 4.167.786 1.65.524 3.04.785 4.167.785 1.127 0 2.238-.261 3.333-.785v9.428c-1.317.524-2.428.786-3.333.786-.906 0-2.301-.262-4.187-.786-1.868-.524-3.25-.785-4.147-.785-.895 0-2.007.261-3.333.785V.786z" transform="translate(18 17)"/>
            <path stroke-linecap="round" d="M0.5 6L0.5 18" transform="translate(18 17)"/>
        </g>
    </g>
</svg>
