<svg xmlns="http://www.w3.org/2000/svg" width="139" height="34" viewBox="0 0 139 34">
    <g fill="#FFF" fill-rule="evenodd">
        <path d="M58.24 23.616c-1.06 0-1.92-.86-1.92-1.92V0c-3.195 1.849-9.616 5.55-9.616 5.55l.002.003c-.01.005-.018.014-.018.026 0 .017.014.032.032.032 1.06 0 1.92.86 1.92 1.92v14.165c0 1.06-.86 1.92-1.92 1.92-.018 0-.032.015-.032.032 0 .018.014.032.032.032h11.52c.018 0 .032-.014.032-.032 0-.017-.014-.032-.032-.032M58.88 4.48c0 2.121 1.72 3.84 3.84 3.84s3.84-1.719 3.84-3.84c0-2.12-1.72-3.84-3.84-3.84s-3.84 1.72-3.84 3.84M3.84 8.32c2.12 0 3.84-1.719 3.84-3.84C7.68 2.36 5.96.64 3.84.64S0 2.36 0 4.48c0 2.121 1.72 3.84 3.84 3.84M9.6 23.616c-1.06 0-1.92-.86-1.92-1.92v-8.705c0-1.327.694-2.528 1.915-3.24l.02-.013c.016-.009.021-.028.012-.044-.008-.015-.028-.02-.043-.011C6.385 11.534 3.162 13.395 0 15.216V18.444h.006c0 .04-.006.076-.006.116 0 2.828 2.292 5.12 5.12 5.12H9.6c.018 0 .032-.014.032-.032 0-.017-.014-.032-.032-.032M21.12 23.616c-1.06 0-1.92-.86-1.92-1.92V11.097C19.2 4.591 15.308.32 9.92.32H9.6c-.018 0-.032.015-.032.032 0 .018.014.032.032.032 1.06 0 1.92.86 1.92 1.92V18.56c0 2.828 2.292 5.12 5.12 5.12h4.48c.018 0 .032-.014.032-.032 0-.017-.014-.032-.032-.032M77.44 4.48c0 2.121-1.72 3.84-3.84 3.84s-3.84-1.719-3.84-3.84c0-2.12 1.72-3.84 3.84-3.84s3.84 1.72 3.84 3.84M79.36 23.616c-1.06 0-1.92-.86-1.92-1.92v-8.705c0-1.327.694-2.528 1.915-3.24l.021-.013c.015-.009.02-.028.011-.044-.008-.015-.028-.02-.043-.011-3.199 1.851-6.422 3.712-9.584 5.533V18.444h.006c0 .04-.006.076-.006.116 0 2.828 2.292 5.12 5.12 5.12h4.48c.018 0 .032-.014.032-.032 0-.017-.014-.032-.032-.032M90.88 23.616c-1.06 0-1.92-.86-1.92-1.92V11.097C88.96 4.591 85.069.32 79.68.32h-.32c-.017 0-.032.015-.032.032 0 .018.015.032.032.032 1.06 0 1.92.86 1.92 1.92V18.56c0 2.828 2.292 5.12 5.12 5.12h4.48c.018 0 .032-.014.032-.032 0-.017-.014-.032-.032-.032M124.088 29.76c0 2.121-1.719 3.84-3.84 3.84-2.12 0-3.84-1.719-3.84-3.84 0-2.12 1.72-3.84 3.84-3.84 2.121 0 3.84 1.72 3.84 3.84M127.06.704c.017 0 .031-.014.031-.032 0-.018-.014-.032-.032-.032h-12.18c-.017 0-.03.014-.03.032 0 .018.013.032.03.032 1.061 0 2.23.68 2.743 1.92l-.033-.08 9.02 21.776 4.156-10.034-4.83-11.662c-.427-1.03.064-1.92 1.124-1.92M138.39.64h-8.082c-.018 0-.032.015-.032.032 0 .018.014.032.032.032 1.06 0 2.229.681 2.742 1.92l-.028-.066 1.327 3.202 1.3-3.136c.513-1.24 1.681-1.92 2.742-1.92.017 0 .032-.014.032-.032 0-.018-.015-.032-.032-.032M113.6 4.48c0 2.121-1.72 3.84-3.84 3.84s-3.84-1.719-3.84-3.84c0-2.12 1.72-3.84 3.84-3.84s3.84 1.72 3.84 3.84M104 23.936c-1.06 0-1.92-.86-1.92-1.92V2.304c0-1.06.86-1.92 1.92-1.92.018 0 .032-.014.032-.032 0-.017-.014-.032-.032-.032h-.32c-5.946 0-10.24 4.693-10.24 11.84 0 7.148 4.294 11.84 10.24 11.84h.32c.018 0 .032-.014.032-.032 0-.017-.014-.032-.032-.032M43.84 4.48c0 2.121-1.72 3.84-3.84 3.84s-3.84-1.719-3.84-3.84c0-2.12 1.72-3.84 3.84-3.84s3.84 1.72 3.84 3.84M34.24 23.936c-1.06 0-1.92-.86-1.92-1.92V2.304c0-1.06.86-1.92 1.92-1.92.018 0 .032-.014.032-.032 0-.017-.014-.032-.032-.032h-.32c-5.946 0-10.24 4.693-10.24 11.84 0 7.148 4.294 11.84 10.24 11.84h.32c.018 0 .032-.014.032-.032 0-.017-.014-.032-.032-.032"/>
    </g>
</svg>
