<svg xmlns="http://www.w3.org/2000/svg" width="22" height="24" viewBox="0 0 22 24">
    <g fill="#FFF" fill-rule="evenodd">
        <path d="M3.84 8.32c2.12 0 3.84-1.719 3.84-3.84C7.68 2.36 5.96.64 3.84.64S0 2.36 0 4.48c0 2.121 1.72 3.84 3.84 3.84M9.6 23.616c-1.06 0-1.92-.86-1.92-1.92v-8.705c0-1.327.694-2.528 1.915-3.24l.02-.013c.016-.009.021-.028.012-.044-.008-.015-.028-.02-.043-.011C6.385 11.534 3.162 13.395 0 15.216V18.444h.006c0 .04-.006.076-.006.116 0 2.828 2.292 5.12 5.12 5.12H9.6c.018 0 .032-.014.032-.032 0-.017-.014-.032-.032-.032M21.12 23.616c-1.06 0-1.92-.86-1.92-1.92V11.097C19.2 4.591 15.308.32 9.92.32H9.6c-.018 0-.032.015-.032.032 0 .018.014.032.032.032 1.06 0 1.92.86 1.92 1.92V18.56c0 2.828 2.292 5.12 5.12 5.12h4.48c.018 0 .032-.014.032-.032 0-.017-.014-.032-.032-.032"/>
    </g>
</svg>
