<svg xmlns="http://www.w3.org/2000/svg" width="75" height="75" viewBox="0 0 75 75">
    <g fill="none" fill-rule="evenodd">
        <circle cx="37.5" cy="37.5" r="37.5" fill="#565E56" opacity=".3"/>
        <path fill="#FFF" fill-rule="nonzero" d="M17.284 18.052c.568-.55 1.385-.948 2.236-.732l.116.2c-.15.482-.6.848-.533 1.413-.017.732.267 1.364.85 1.813.751.582 1.702.798 2.72.798.25 0 .183-.3.15-.432-.3-1.114-.7-2.195-.951-3.343h.167l2.953 3.11 5.22 5.69c.05.082.017.216-.05.282-.95.632-2.335.366-3.219-.2-1.952-1.114-1.018-4.357-3.72-4.623-1.351.083-2.602.582-3.97.366-.067.033-.167.1-.117.2.25.847 1.301.631 1.919 1.03 2.285 1.048 1.017 4.058 2.502 5.688.417.649 1.234 1.048 2.102.998.3-.05.617-.233.917-.133-.2.515-.8.748-1.351.748-1.468-.15-2.903 0-3.937.965-.017.2.2.166.317.216 2.252.033 3.07 2.129 4.871 3.077.534.25 1.168.432 1.802.3.25-.317.066-.816.15-1.198.117-.715.4-1.447.934-1.93 1.068.416 2.352.4 3.337.982v.066c-.35.05-.868-.332-1.051.15-.518.033-1.101.116-1.335.598-.1.3.134.516.334.632.984.283 1.785-.482 2.469-1.014.25-.067.567-.117.684-.416.217-.798.384-1.68.233-2.561.234-.133.618-.017.901.033.417.25.184.848.484 1.148.283.033.634-.183.834.083 0 .748-.3 1.397-.317 2.145.083.632.801.383 1.218.516.033.05.133.083.1.183-.668.25-1.568-.117-2.119.399-.1.066-.233.183-.2.333.718.731 1.969.332 2.936.432.234-.016.4-.183.634-.2-.066.283-.333.4-.567.533-.884.15-1.935.066-2.852-.017-.15-.05-.334-.233-.484-.133.117.25.317.449.317.748.486.452 1.017.853 1.584 1.198.417.116.784-.133 1.051-.4l1.102-.881c.083 0 .216 0 .216.1-.033.266-.45.332-.433.549.317-.15.717-.2.917-.566.1-.283-.05-.565-.3-.698-.117.017-.134-.133-.084-.2.184-.183.517-.183.75-.1.201.067.335.25.401.466.017.3-.033.582-.3.782-.85.515-1.768.898-2.619 1.38-.334.35.05.848.067 1.264.15.25.1.632.433.765.734-.05 1.885.416 2.269-.399.467-.998 1.068-1.929 1.2-3.06-.4-1.18-.9-2.328-1.4-3.459-.134-.416.4-.2.567-.4.751-.365 1.54-.65 2.352-.848-.4.466-1.168.832-1.018 1.564.168.532.801.532 1.285.615-.017.183-.234.233-.334.383-.083.615-.867.449-.984 1.014-.117.383 0 .782.1 1.131.317.233.768.233 1.118.432 2.502 1.514 2.819 4.54 3.536 7.085.4 1.164 1.235 2.345 2.386 2.86 0 .117-.2.117-.334.134-1.1.083-1.952-.782-2.452-1.647-.617-1.38-.684-2.993-1.135-4.457l-.05.033c.1 2.312.117 4.907 2.252 6.12 1.785.616 3.87-.598 5.522.433 1.702 1.065 1.518 3.326 3.403 4.208l.05-.05c-1.1-1.214-1.05-2.91-1.768-4.291-1.434-2.062-4.47-.831-5.938-2.727-2.386-2.495-2.07-6.37-5.138-8.366 1.217.266 1.968 1.397 2.619 2.445 1.117 1.88 1.701 4.274 3.72 5.505 1.451 1.114 3.436.914 4.988 1.796 1.651 1.53.083 4.706 2.552 5.787.417.2 1.05.283 1.451-.05.684.084 1.335-.066 1.735-.565-.017-.067.05-.133 0-.183-1.001.116-2.019-.017-2.836-.482-.017.199.284.365.25.565-.917-.283-1.451-1.297-1.735-2.129-.5-1.613-.266-4.108-2.452-4.457-1.901-.316-3.803-.815-5.038-2.544-1.468-2.063-2.202-4.873-4.62-6.187-.084-.316.316-.466.517-.616 1.55-.066 2.719 1.198 3.62 2.246 1.618 2.128 2.869 4.872 5.705 5.488 3.053.233 4.304-3.592 7.407-3.177.767.15 1.384.698 1.635 1.43.433 1.048-.034 2.096-.1 3.16.1.1.233.017.317-.066.633-1.181.617-3.01-.284-4.058-1.618-1.73-4.354-.749-6.222-.117-.968.316-2.102.15-2.853-.499-1.852-1.646-2.369-4.39-4.755-5.587-.5-.25-1.034-.366-1.601-.466v-.05c1.018-.15 2.052-1.064 3.07-.366.8.682 1.467 1.863 2.702 1.846 1.635-.233 2.052-2.162 2.636-3.426.3-.449.767-.848 1.384-.748 1.218.432 1.852 1.546 3.087 1.979.867.383 1.801.017 2.502-.499.116.066.016.266-.05.366-.217.316-.734.482-.668.865.084.166.318.25.484.133 1.001-.732 1.501-2.062 1.251-3.41-.167-.598-.35-1.18-.817-1.663.033.699.284 1.464.083 2.179-.15.665-.733 1.214-1.4 1.314-.751.133-1.402-.183-1.92-.616v-.083c.468.083 1.202.4 1.569-.05-.117-.35-.617-.083-.867-.233-1.352-.2-2.27-1.447-3.537-1.846-.183-.016-.45-.083-.6.05l.433.217-.033.066c-.7.1-1.385.432-1.768 1.081-.7 1.098-.25 2.744-1.368 3.609-2.002.698-2.653-1.946-4.388-2.146-.133-.233.2-.299.334-.365 1.351-.15 2.102 1.214 3.32 1.413.25-.016.534-.15.634-.382-.084-.316-.45-.033-.668-.15-1.117-.166-1.918-1.131-3.036-1.314l.134-.1c1.284.133 2.619 0 3.486-.981 1.118-1.031 2.686-1.796 4.27-1.18l.201-.067c.467-.382.717-.782 1.184-1.048-.15.516-.734.848-.867 1.38.867.715 1.918 1.697 3.186 1.231.534-.233 1.034-.698 1.084-1.314.05-.465-.116-.915-.166-1.38.083-.216.317-.083.45-.05 1.285 1.03 1.819 2.777 1.335 4.407-.317 1.081-1.085 2.012-2.219 2.312-1.435.282-2.536-.55-3.704-1.065-.65-.15-1.284.117-1.734.567-.217.266.217.283.334.415.684.266 1.401.466 2.052.815-.951-.116-1.902-.449-2.886-.615-.701.482-1.368 1.247-2.286 1.364-.75.166-1.368-.166-2.018-.316-.134.166.116.316.167.466l.266.099 10.31.382c0 .034.05.034.067.034l-.15.15-6.807 2.644c-.066.066-.166.066-.217.15.034.15.234.133.368.15 2.001-.1 3.703-1.398 5.838-.766.801.316 1.719.715 2.069 1.613.6 1.115.467 2.828-.167 3.875-.2.217-.434.35-.7.283-.15-.066-.25-.25-.284-.416.1-.781.517-1.813-.15-2.46-.467-.433-1.201-.55-1.852-.383-.9.316-1.618 1.064-2.335 1.646.183.748.667 1.38.85 2.146l-.116-.017c-.418-.55-.851-1.148-1.302-1.68-.467.116-.867.399-1.318.549-.35.116-.767.1-1.1.282l.25.25c1.484.88 3.035 1.746 4.454 2.694 0 .1-.15.1-.25.1-1.018 0-2.07-.1-3.037-.017-.183.366.017.765.017 1.147.15.283.117.649.334.898l.217-.133c.834 1.115 2.218 1.514 3.62 1.231.15-.05.417-.033.433.15-.266.997-1.134 1.646-2.085 1.979-1.351.35-2.886.083-3.987-.715-.05 0-.167.066-.117.15l.184 1.047h-.084c-1.034-2.095-2.035-5.089-4.838-5.371-.5-.084-1.017-.1-1.518.016-.116.083-.033.183 0 .283l6.606 6.735v.1c-.55-.033-1.017-.266-1.568-.333-.25.3-.033.782-.166 1.115-.35 1.796-1.452 3.525-3.12 4.407-.15.033-.35.033-.434-.117.2-.698.734-1.28 1.001-1.962.35-.765.35-1.88-.1-2.595-.767-1.147-2.285-1.363-3.136-2.428-1.368-1.862-1.634-4.174-2.486-6.253.35.117.601.616.835.948 1.134 1.946 1.668 4.407 3.686 5.721 1.068.832 2.32 1.78 2.302 3.243.034.882-.4 1.58-.817 2.279.417-.15.667-.699.95-1.065.601-1.148 1.169-2.844.318-4.058-1.235-1.73-3.72-1.946-4.871-3.808-.985-1.497-1.535-3.277-2.97-4.49-1.368-1.647-1.25-3.975-2.569-5.605-.083-.034-.116-.117-.217-.083-.15.2-.25.415-.2.698.284 2.411 1.485 4.44 2.236 6.652.8 2.395.917 5.123 2.769 7.052.334.216.717.399.984.682-.017.116-.15.116-.267.116-.2 0-.467-.05-.55.166-.167.749-.184 1.547-.4 2.262-.168-.715.016-1.73-.15-2.478-.768-.349-1.519-.881-1.82-1.73-1.034-2.478-1.667-5.105-2.652-7.6-.133-.166-.183-.482-.434-.465l.034.249 4.57 14.02c0 .033-.016.083-.05.083-1.15-.682-2.101-1.63-3.186-2.411-.2-.083-.25.133-.317.232-.5 1.68 1.318 2.395 1.618 3.792.15.715.017 1.447-.467 1.946-.483.566-1.267.715-2.018.566-.134-.034-.234-.1-.334-.183-.016-.333.4-.183.584-.333.234-.1.284-.366.184-.566-.651-.748-1.769-.781-2.336-1.663-.567-.781-.717-1.746-.767-2.744-.45.366-.734.982-1.185 1.364h-.05l.017-.266 1.702-3.659c-.334-1.813-2.37-2.611-2.953-4.307-.017-.034-.05-.017-.084-.017l-.083.233v9.596l-.067.05c-.9-1.081-1.551-2.345-2.419-3.46-.433.666-.533 1.53-1.2 2.113-1.185 1.03-2.82 1.513-4.455 1.247-.167-.017-.3-.15-.384-.283.1-.599.918-.732 1.251-1.197.735-.765 1.201-1.713.951-2.827-.3-.982-.683-1.913-1.25-2.795-.701.233-1.252.815-1.936 1.115.484-.749 1.1-1.165 1.651-1.88-.116-1.031-.166-2.295.334-3.193.617-1.247 1.919-1.763 3.103-2.228.234-.2.334-.45.267-.732-.267-.566-.8-1.048-1.234-1.447l-.184.05-1.985 3.143-5.155 8.382c-.133.034-.133-.116-.133-.2.217-1.995.617-3.957.75-5.953l-.083-.05c-1.351.283-2.736 1.08-3.32 2.444-.267 1.298-.484 2.994-2.002 3.426-.65.2-1.45.034-1.951-.415-.4-.333-.517-.849-.568-1.348.05-.449.267-.898.618-1.114.3-.15.634-.2.984-.25-.033-.415-.35-.748-.484-1.147-.333-.815-.117-1.796.3-2.495 1.585-1.945 4.388-1.613 6.023-3.458.05-.117-.084-.084-.134-.117l-3.953.432c-.034-.033-.117-.033-.084-.1 1.485-.432 3.053-.681 4.571-.997.417-.516.467-1.23.567-1.88l.2-1.43-.066-.05c-2.97 1.514-5.856 3.21-8.842 4.657l.017-.2c.9-1.33 1.835-2.66 2.686-4.024-.2-.133-.35.116-.518.183-1.167.898-2.669 1.53-4.22.998-.935-.416-1.552-1.148-2.336-1.847-.367-.432-1.735.2-1.318-.848.117-.382.4-.649.75-.848 1.152-.666 2.136.366 3.237.316 1.251-.183 1.785-1.513 2.786-2.079v-.15c-1.668-.914-3.42-1.63-5.071-2.594 0-.05-.1-.083-.017-.133l1.685-.066 11.978-.1c.3-.083.55-.216.75-.499.034-.3-.267-.333-.466-.45-1.936-.764-3.604.5-5.522.45-1.335-.083-2.503-.565-3.504-1.397-.867.05-1.601.6-2.468.732v-.1c.65-.349 1.367-.615 1.951-1.048l-.017-.199c-.817-.931-1.785-1.713-3.086-1.596-.8.033-1.468.399-2.135.765-.184.083-.384-.084-.4-.283-.067-1.68.7-3.343 2.118-4.091 1.268-.65 3.02-.4 4.087.482 1.001.765 1.902 2.295 3.37 1.613.117-.083.017-.216-.017-.3-1.284-1.546-2.602-3.06-3.787-4.59v-.083l.267.05 6.089 3.31c.067 0 .116.066.167 0-.167-.749-.45-1.514-.668-2.279l-.25-.25c-.867-.249-1.768-.415-2.602-.78l.033-.05c.868.033 1.685.265 2.52.282-.034-.599-.418-1.23-.935-1.58-1.585-.915-4.037-1.197-4.354-3.443-.167-1.097-.017-2.262.717-3.076zm21.72 26.11c.634 1.364.35 3.11-.167 4.44-.784 2.246.25 4.391 1.702 6.038.517.881.233 2.112-.05 3.01-.184.765-.4 1.597-.133 2.395.517 1.397 2.385.997 2.952 2.228.1.333.05.732-.1 1.031-.1.2-.3.333-.35.516.484-.216.7-.715.734-1.214.1-1.214-.968-1.946-1.535-2.86-1.3-2.23 1.768-3.742.584-5.888-.984-1.314-2.719-2.461-2.352-4.358.367-1.63.767-3.791-.417-5.155l.108.197c.66 1.33.069 2.933-.319 4.248l-.056.195c-.368 1.148-.017 2.395.417 3.41v.199c-.434-.266-.6-.749-.818-1.148-1.234-2.56 1.969-5.022-.2-7.284zm2.62 17.563c-.084-.017-.184.1-.117.166.317.166.6.366.85.648.218.15.168.483.418.583l.05-.05c.2-.2.15-.516.083-.765-.267-.483-.784-.582-1.284-.582zM30.78 40.404c-.267.815-.083 1.83.017 2.694.184 1.63 1.385 2.86 1.952 4.34.4 1.963-1.952 1.813-2.803 3.011-2.369 2.96 1.385 5.388.767 8.482-.166.731-.667 1.363-1.15 1.912.35-.033.634-.3.9-.515 2.269-2.229-.367-4.757-.617-7.118-.234-2.03 1.551-3.094 3.003-3.992.667-.549.884-1.53.617-2.395-1.05-2.062-2.836-3.858-2.686-6.419zm1.619 1.463c.117 1.796 1.284 3.177 1.768 4.84.6 2.527-2.419 3.043-3.336 4.856-1.001 1.813.367 3.459.867 5.056.55 1.363.267 3.093-.584 4.224.367-.1.7-.35.968-.632 1.567-1.547.633-4.008 1-6.02.184-2.412 2.386-3.975 3.07-6.187.417-1.596-.184-3.143-1.218-4.324-.233-.216-.45-.515-.717-.565.25.93 1.051 1.646 1.251 2.61.484 1.763-.417 3.327-1.668 4.491-1.468 1.48-2.019 3.759-1.301 5.788.033.332.15.715 0 1.03l-.001-.001-.166-.378c-.28-.633-.567-1.28-.762-1.955l-.105-.41c-.417-1.397.083-2.744 1.05-3.692 1.218-.964 2.737-2.045 2.503-3.841l-.05-.05c-.234-1.464-1.285-2.578-2.019-3.825-.167-.35-.35-.699-.55-1.015zm11.327 4.191l.85 1.214c1.268 2.428 1.051 5.605 3.437 7.418.867.698 2.502 1.014 2.552 2.394-.734-1.496-2.619-1.347-3.686-2.41-1.001-.916-1.368-2.13-1.819-3.277-.617-1.796-.917-3.709-1.618-5.455.1-.033.217.033.284.116zm-25.724 9.13c-.217-.465-.851-.332-1.152-.05-.1.167-.166.383-.133.583.034.532.717.299.801.798.067.166.267.316.45.233-.1-.5.518-.35.651-.666.35-.731-.734-.249-.617-.897zm11.21-17.579c-1 .732-1.784 1.913-2.218 3.044-1.135 2.478-.067 5.87-1.201 8.349-.718 1.297-2.019 2.062-3.42 2.295-1.301.216-3.003-.283-3.787.914-.367 1.614 1.802 2.695.617 4.324.4-.399.5-.964.617-1.513.184-.749.418-1.48.885-2.112-.234 0-.45.266-.668.116-.2-.482-.75-.648-1.084-.915.817-.764 2.219-.349 3.32-.565l.2.05c2.936-.382 5.839-2.278 6.74-5.205.533-2.146.082-4.64.484-6.753-.234.466-.317.998-.434 1.53-.167 2.91-.35 5.855-2.57 7.867h-.166c.117-.366.3-.715.518-1.048 1.618-2.877.416-6.918 2.418-9.63l-.001.001-.2.207c-1.671 1.83-1.352 4.544-1.915 6.876l-.07.268c-.083.415-.2.864-.483 1.147-.067-.599 0-1.38-.05-2.045-.3-2.828.634-5.256 2.469-7.202zm13.046 16.748c.183.3.183.732.033 1.031-.15.283-.417.615-.75.582.283-.632.2-1.414-.034-2.062.334-.133.584.233.75.449zm-17.533-8.3l-.401.95c-1.067 1.995-3.386 2.095-5.171 2.926-.484.25-1.068.599-1.051 1.23.016.134.15.233.283.233 1.285-.432 2.336-1.413 3.603-1.879 1.385-.599 2.72-1.88 2.737-3.46zm12.712-2.91c-.15.2-.1.45-.034.666.65 1.68-.7 2.994-.917 4.524-.2.948-.334 2.145.2 2.96-.017-.516-.134-1.148.016-1.68.1-1.846 1.335-3.21 1.318-5.089-.2-.466-.217-1.047-.583-1.38zm-12.642 5.114l-.087.01c-.65.265-1.1.764-1.651 1.147-.568.332-1.201.548-1.719.98-.016.134-.083.334.084.433.85.233 1.718-.1 2.469-.432.633-.383 1.501-1.115 1.334-1.946-.083-.166-.317-.216-.517-.183zm27.155.292c-.083 0-.117.066-.1.15.35.282.767.465 1 .814H53v-.066c-.116-.466-.583-.848-1.05-.898zm-32.814-7.285c-2.018-.382-2.552 1.946-4.17 2.495-.317.25-1.034-.05-1.051.532.267.366.817.366 1.285.3 1.567-.034 2.568-1.23 3.32-2.478.15-.3.616-.5.616-.849zm16.85 1.93c-.118.05-.184.233-.151.399.15.299.317.615.65.698l-.233-.848c-.117-.067-.083-.266-.267-.25zm24.155-2.212c-1.185-.117-2.102.765-2.736 1.596-.084.183-.067.383.1.533.117.116.267 0 .4 0 .751-.632 1.668-1.015 2.47-1.53.1-.15.05-.366-.068-.5zm-48.311.665c-.367.05-.768.216-.918.549h.067c1.668-.566 2.686 1.746 4.22.432.184-.166.334-.399.284-.698-.283-.533-.767.133-1.184.133-.918.266-1.569-.466-2.47-.416zm36.65-5.887c1.535 1.164 2.652 3.06 3.753 4.69.718.997 1.835 1.796 3.153 1.43 1.018-.35 1.886-1.031 2.903-1.364l-.066.166c-1.468 1.015-2.903 2.645-4.905 1.913-2.102-.965-3.053-3.376-4.471-5.122-.884-1.148-2.135-2.146-3.687-2.229-.1-.05-.1-.2-.017-.25 1.202-.282 2.353.2 3.337.766zm-22.387 3.642c-.951.648-1.869 1.43-3.053 1.58-1.502.2-2.503-.965-3.787-1.38-.534-.117-1.151-.05-1.485.432-.066.2-.117.532.134.648.6-.066 1.317-.216 1.901.017 1.185.715 2.67 1.38 4.104.765.934-.416 1.802-1.08 2.186-2.062zm8.49 1.796l-.166.066c0 .034 0 .067.033.084 1.502.166 3.07.216 4.621.15.084-.017.2-.067.15-.184-1.45-.116-3.102-.083-4.637-.116zm-.733-3.127l-.05.017c.166.316.6.3.717.615-.333.117-.7-.083-1.05-.05.317.615 1.1.582 1.567.981-.417.45-.984-.016-1.468.017.067.366.234.815.6.948.635-.05 1.386.25 1.903-.15.166-.532.4-1.064.383-1.646-.25-.15-.467.083-.717.05-.434-.615-1.201-.649-1.885-.782zm-6.94-.515c-.884.465-1.818.864-2.87.948-1.6.183-2.668-.998-4.186-.898-.751.066-1.452.482-1.852 1.097-.067.117-.234.267-.05.383 1.652-.3 2.703.848 4.004 1.38.684.216 1.518.116 2.052-.3-.2-.116-.468-.049-.684-.099-1.585-.033-2.52-1.68-4.188-1.497-.1.05-.2-.05-.166-.15 1.268-1.03 2.669.133 3.836.6 1.285.365 2.686.065 3.67-.75.217-.15.434-.448.434-.714zm13.196 1.23l.066.067c-.217.848-1.15 1.048-1.868 1.23-.117-.082 0-.199.05-.282.4-.649 1.168-.649 1.752-1.015zm-.084-.848c-.017.366-.4.599-.667.799-.417.199-.8.515-1.251.615-.084-.15-.284-.316-.134-.499.634-.449 1.335-.715 2.052-.915zM33.8 36.296c-.317.05-.334.449-.284.715.217.849 1.251.5 1.802.832-.317-.616-1.118-.233-1.535-.666-.267-.25-.067-.648.017-.881zm-7.08-.079l-.06.012c-1.034.765-2.219 1.364-3.57 1.48.584.05 1.218.05 1.752-.132.733-.25 1.534-.55 2.051-1.198-.05-.083-.1-.2-.233-.15zm-4.998-2.55c-1.301-.132-2.67-.082-3.653.733-.034.2-.034.45.133.549.934.449 2.068.732 3.17.449.433-.116.934-.216 1.234-.615.033-.167.084-.416 0-.583-.183-.299-.55-.465-.884-.532zm23.154-1.063c.935.482 1.97.765 3.137.598.083.034.117.084.15.15.05.183-.15.3-.267.316-1.151.117-2.152-.216-2.986-.898l-.034-.166zm-17.165-.017l.05.05c-.55.632-1.452.798-2.286.748-.1-.066-.016-.183 0-.266l.234-.15c.68-.048 1.352-.177 2.002-.382zm-11.944-3.31c-.651.533-1.151-.332-1.885-.15-.518.1-1.168.334-1.285.949.317.549 1.084.116 1.618.283 1.902-.05 2.002 2.345 3.654 2.793 1.217.333 2.685.183 3.736-.366.05-.083.017-.216-.083-.249-1.301-.182-2.553-.515-3.553-1.463-.768-.45-1.185-1.68-2.202-1.796zm14.13 1.697c.75-.582 1.6-1.38 2.618-.948.417.166.684.466.901.865.417.632.067 1.447.1 2.162l-.15.116c-1.284-.865-3.136-.499-4.237-1.73.133-.299.533-.266.767-.465zm10.075-.566c.434-.482 1.184-.781 1.902-.532.684.233 1.234.832 1.935 1.064v.183c-1.001.998-2.402 1.298-3.654 1.813h-.233c-.367-.715-.55-1.862.05-2.528zm-24.806 1.098c-.3-.615-.984-.765-1.668-.715-1.068.1-1.968.765-2.419 1.713.917-.416 1.985-.782 3.07-.482.283.066.733.216.967-.034.133-.1.083-.332.05-.482zm17.4-.848c-.1.565-.401 1.08-.501 1.596.217.034.35-.116.5-.2.3-.298.417-.714.284-1.114-.084-.083-.117-.282-.284-.282zm7.974-.067c-.184.084-.284.3-.317.516 0 .316.1.599.317.831.166.134.35.267.567.217.05-.167-.084-.266-.134-.383-.217-.366-.166-.832-.433-1.18zm-8.76-.266c-.316-.083-.583.167-.75.366-.216.366-.25.849.017 1.198.25.066.184-.283.267-.433.1-.399.417-.731.467-1.13zm9.66-.066c-.117-.017-.066.1-.083.183.283.399.4.881.6 1.33.05.067.1-.016.15-.033.2-.283.167-.698.017-.998-.15-.25-.383-.465-.684-.482zm-14.697 1.014c.3.084.65.05.918.233-.067.233-.35.216-.584.216-.217-.033-.434-.05-.6-.183-.034-.166.15-.233.266-.266zm21.153-.582c0 .266-.3.333-.467.466-.668.25-1.385.499-2.119.432-.066-.066-.183-.15-.1-.266.801-.216 1.635-.349 2.37-.765.116 0 .266-.016.316.133zm12.712-9.13c.083.05.067.166.033.216-.584.167-1.168-.2-1.801-.083-.951.35-1.768 1.065-1.852 2.129-.1.964-.117 1.996-.284 2.893l.1.1c1.018.05 2.069.017 3.053.133l-.166.183-9.409 4.091c-.1 0-.167.05-.267.034-.083-.1-.017-.266.05-.366 1.051-1.514 3.187-1.18 4.588-2.229 1.584-1.097 2.018-3.043 1.918-4.989.117-.948.868-1.78 1.718-2.162.05-.083.15-.133.117-.25-.484-.399-1.084-.033-1.518.184l-.6.432c-.167-.1.017-.333.05-.482.284-.566.8-1.081 1.418-1.18 1.284-.184 1.684 1.263 2.852 1.346zm-5.138 4.34c-.317 1.215-1.618 1.78-2.62 2.362-.1.133-.266.283-.15.483l.217.25-.15.149c-1.118.399-2.385.615-3.136 1.78l-.067.016c-.133-.25.084-.532.2-.781.317-.55.885-1.015 1.201-1.547.134-.233-.15-.4-.05-.582 1.702-.25 3.52-.566 4.505-2.129h.05zm-27.575 4.025c.316.216.5.532.633.865-.017.166-.166.017-.25.033-.317-.266-.667-.432-.717-.881.083-.084.233-.05.334-.017zm5.32-2.444c-.283.2-.7.216-1.033.332-.434.233-1.085.5-1.151 1.081 0 .217.183.35.367.416.717-.1 1.534-.266 2.235.017.7.35 1.668.4 2.285-.2.134-.016.117.117.15.2.017.35-.266.665-.533.832-1.635.914-2.72-1.33-4.404-.416-.6.282-1.235.748-1.952.416-.267-.2-.417-.483-.384-.832-.008-.071.015-.143.062-.197.048-.054.116-.085.189-.086 1.134.167 1.668-1.164 2.652-1.447.45-.183 1.034-.316 1.518-.116zm11.945 1.613c.1 0 .184.017.217.116 0 .383-.234.748-.55.948.066-.366.15-.731.333-1.064zm-22.17-5.887c.534.299.934.798 1.15 1.363.551 1.43-.166 3.493 1.419 4.374.384.266.85.35 1.351.333 0 .299-.4.432-.634.565-.634.266-1.501.2-2.035-.233-1.335-.981-.9-2.91-.717-4.357 0-.832-.334-1.58-1.001-2.129.167-.066.3.067.467.084zm16.115 4.207c-.25.216-.6.4-.701.732-.033.316.117.499.367.649.334.083.183.582.584.615 1.25-.033 2.252-1.347 3.553-.565.317.216.617.449 1.051.282.084-.083.184-.233.3-.15.134.117.1.35.034.483-.134.216-.334.416-.6.482-1.168.25-1.919-.997-3.103-.482-.684.283-1.535.715-2.286.283-.45-.233-.533-.716-.533-1.181.083-.582.5-.998 1.067-1.18.116.015.167-.035.267.032zm12.461-.382c.234.066.517.05.717.2-.383.199-.934.099-1.368.232-1.384.283-2.252 1.414-3.252 2.245-.117.034-.2-.033-.234-.116.117-.616.6-1.031.967-1.514.768-.848 1.919-1.297 3.17-1.047zm4.571-7.534c.951-.5 2.369-.599 3.22.116.25.167.517.416.667.699.033.15-.033.399-.267.332-.667-.2-.934-.831-1.635-.948-.817-.133-1.535.25-2.069.799-1.618 1.663-.45 4.723-2.685 5.987-1.485.598-2.72-1.031-4.12-.1-.885.682-1.269 1.796-2.286 2.362-.35.116-.55-.267-.75-.483l.05-.183c1.45-.914 1.65-2.793 3.352-3.276 1.518-.383 3.253-.815 3.987-2.362.167-.864.25-1.762.55-2.56h.068c.116.332-.034.764.116 1.08.651-.499 1.051-1.148 1.802-1.463zm-31.062 6.303c.434 1.014 1.201 2.128 2.385 2.345.15.066.034.216 0 .266-.283.233-.667.266-1.034.282-.584-.016-1-.482-1.25-.98-.2-.583-.301-1.298-.184-1.913h.083zM48.33 12.298c1.25-.034 2.502.765 3.036 1.912.834 1.63.234 3.576-.5 5.056l.05.05 2.852-1.547.134.034-.15.315-6.04 7.75c-.566.633-1.217 1.53-2.084 1.564l-.034-.017c.968-.665 1.885-1.696 2.186-2.877.25-1.862.967-3.592 2.285-4.972 1.101-1.314 1.802-3.027 1.184-4.79-.366-1.08-1.317-1.912-2.402-2.095.417.415 1.101.748 1.352 1.363.333.666.3 1.613-.184 2.195-1.518 1.847-4.938 1.331-5.205 4.324.017 1.713-.083 3.626-1.801 4.341-.65.3-1.251.732-1.952.865l-.083-.1c.2-.549.6-.882 1.034-1.33-.034-.017-.034-.05-.034-.083.518-.217.768-.666 1.168-1.065 1.084-1.58.3-4.074 2.252-5.14l.284-.282.033-2.112h.067l.417 1.846.183.05c1.151-.382 2.77-.915 2.903-2.395-.1-1.014-1.201-1.413-1.368-2.395-.016-.25.217-.399.417-.465zm2.352 5.372c-.033.349-.234.698-.484.98-1.084 1.165-2.602 2.312-2.62 4.092-.283 1.68-1.234 3.592-3.052 4.008v-.1c1.385-.698 2.319-2.112 2.302-3.675-.067-1.564.534-2.96 1.885-3.759.717-.532 1.268-1.014 1.902-1.546h.067zm.083-1.431c.117.083-.016.233-.016.333-1.151 1.912-4.12 2.228-4.504 4.656-.084 1.664.166 3.593-1.435 4.49-.584.35-1.2.732-1.902.566v-.083c1.301-.565 2.419-1.846 2.402-3.343-.15-1.73.234-3.492 1.835-4.257 1.285-.6 2.686-1.148 3.62-2.362zm3.42 6.503c-.617.948-1.335 1.73-2.319 2.228-.584.316-1.318.316-1.852.732 1.168-.1 2.202 1.148 3.27.216.2-.349-.333-.382-.383-.632.734-.632 1.25-1.497 1.367-2.46zM24.758 11.167c1.018-.865 2.552-1.264 3.937-.815.967.25 1.952.915 2.419 1.813 1.018 2.395-1.351 5.638 1.234 7.35.2.067.2-.182.3-.282.468-2.029.901-4.075 1.419-6.087l.05-.05.133.116c.534 2.994.985 6.054 1.402 9.047l-.05.083c-.417-.299-.734-.731-1.151-1.03-1.619-.899-3.754-1.98-3.704-4.175-.116-1.896 1.134-4.357-.667-5.738-.734-.732-1.835-.914-2.853-.765.784.2 1.635.649 1.919 1.48 1.118 3.443-3.403 5.805-1.168 9.23.984 1.115 2.569 1.797 3.02 3.294.083.499.3 1.13.033 1.596-.117.033-.134-.083-.15-.15.133-3.093-3.954-2.827-4.471-5.52-.167-.384.05-.999-.5-1.165-.635-.35-1.285-.632-1.902-1.065v-.066c.784.083 1.45.549 2.218.582.2-.35.117-.815.284-1.18.317-1.48 1.551-2.944.717-4.557-.734-1.098-2.102-.134-3.053-.433-.367-.565.25-1.081.584-1.513zm13.83-1.247c1.167-.981 3.286-1.38 4.437-.167.133.915-.95 1.048-1.401 1.647-.901.765-1.101 2.078-.718 3.176.25.749.75 1.447 1.335 1.996l.15-.017c.951-.981 1.785-2.145 2.77-3.06h.05l-.068.433-3.653 10.078c-.083.1-.15.133-.25.067-1.001-1.497 0-3.194.817-4.458.884-1.762-.467-3.342-1.551-4.623-.5-.765-.65-1.862-.35-2.777.384-1.065 1.468-1.447 2.335-1.946.117-.1.25-.233.184-.382-.217-.333-.634-.3-1.001-.333-1.001.116-2.002.649-2.402 1.613-.985 2.728 2.135 4.723.6 7.351-1.384 1.547-2.87 3.626-1.701 5.788-.434-.267-.601-.815-.734-1.298-.084-.283-.1-.599-.217-.848-.434.615-.267 1.663.05 2.312.217.332.467.648.85.781.35.25.818-.565.901.1 0 .233-.167.4-.366.466-.668.216-1.285-.233-1.686-.666-1.218-1.347-1.084-3.658-.417-5.222.284-.416.467-1.014.134-1.463l-.718-2.08h.1c.434.65.684 1.398 1.151 1.997 2.119-2.561-1.434-6.104 1.368-8.465zm-8.875 1.662c.517.217.784.765.984 1.281.25 2.345-2.336 3.659-2.169 6.037.117 1.214.835 2.312 2.019 2.744 1.318.516 3.136.782 3.62 2.378.083.433-.017.865-.317 1.131-.367.316-.868.483-1.385.333-.967-.333-1.034-1.447-1.434-2.228v-.184c1.25-.05 1.167 1.996 2.485 1.647.184-.083.334-.266.334-.466-.367-1.929-2.686-1.68-4.104-2.328-.851-.316-1.502-1.098-1.618-1.996-.567-2.627 1.818-4.158 2.035-6.536.017-.632-.2-1.247-.45-1.813zm10.693 10.062c-.15.948-.1 2.046.434 2.827 0 .117-.084.183-.2.217-.618-.267-.868-.948-.901-1.614-.05-.561.204-1.107.667-1.43zm.8-4.64c.218.067.218.35.284.549.3 2.71-3.77 4.208-1.818 7.018v.05c-.8-.415-1.168-1.38-1.084-2.328.183-2.046 2.552-3.194 2.619-5.29zm-11.693.283l.083.083c-.15 1.23.317 2.412 1.284 3.077 1.752.865 3.788 1.78 4.588 3.759.017.132.133.199.084.332-.034.05-.1.017-.15.033-.835-2.045-2.937-2.91-4.855-3.509-.784-.332-1.335-1.114-1.452-1.929-.083-.682.017-1.33.418-1.846zm-10.493.416c-.685-.05-1.252.598-1.452 1.197-.134.798 0 1.58.534 2.162.734.782 1.902 1.214 2.953.782-.85-.366-1.802-.765-2.236-1.713-.267-.782-.183-1.713.2-2.428zm20.552-2.01c-.284 1.894-1.735 3.374-2.369 5.086.867-1.08 2.135-1.746 2.619-3.126.067-.565.1-1.51-.25-1.96zm-13.346-4.144c-.484-.033-1.034-.1-1.385.266-.133.133-.367.283-.283.532.517.05 1.017-.166 1.535-.2.383-.082.717.134 1.05.017-.15-.382-.567-.482-.917-.615z"/>
    </g>
</svg>
