<svg xmlns="http://www.w3.org/2000/svg" width="75" height="75" viewBox="0 0 75 75">
    <g fill="none" fill-rule="evenodd">
        <circle cx="37.5" cy="37.5" r="37.5" fill="#565E56" opacity=".3"/>
        <path fill="#FFF" fill-rule="nonzero" d="M37.628 34.069h5.788L41.8 43.862h4.306l1.75-9.793h5.787l.404-1.793h-16.15l-.27 1.793zm26.918 3.586c-1.48.69-3.365.414-4.98.414l.808-4.138h3.095c.808 0 1.615.276 1.885 1.104.403.827.134 2.068-.808 2.62zm4.98-3.586c-1.346-1.931-4.038-1.793-6.46-1.793h-6.73l-2.019 11.586h4.173l.807-4.138h4.576c1.615 0 3.365-.138 4.71-1.241 1.347-.966 1.885-3.035.943-4.414zm-42.8 6.483l3.23-4h.135l2.02 4h-5.384zM31.438 32L21.074 44H23.9l1.48-1.793h7.538L33.725 44h4.846l-6.46-12h-.674zM16.23 37.517c-1.48.69-3.5.552-5.115.552l.808-4h3.365c.807 0 1.615.138 2.018.966.135.69-.269 2.068-1.076 2.482zm3.5.828c2.556-1.242 2.422-4.552-.136-5.655-1.21-.552-2.691-.414-4.037-.414H8.019L6 43.862h4.038l.942-5.103h.269l4.172 5.103h5.115l-4.307-4.69c1.076 0 2.422-.275 3.5-.827z"/>
    </g>
</svg>
