<svg xmlns="http://www.w3.org/2000/svg" width="75" height="75" viewBox="0 0 75 75">
    <g fill="none" fill-rule="evenodd">
        <circle cx="37.5" cy="37.5" r="37.5" fill="#565E56" opacity=".3"/>
        <path fill="#FFF" d="M18 56h7.324l.097-7.054.097-6.847h5.205c.651 1.115 1.352 2.285 2.103 3.51.786 1.282 2.55 4.139 3.92 6.348l2.49 4.017h7.866c-1.44-2.402-2.973-4.902-4.598-7.499l-4.434-7.083 1.715-1.08c3.363-2.114 5.15-5.608 5.157-10.08.002-1.606-.196-3.613-.44-4.457-.556-1.932-2.34-4.345-4.194-5.678-2.492-1.79-4.46-2.088-13.823-2.093L18 18v38zm7.502-20.75h4.377c6.412 0 8.265-1.22 8.265-5.2 0-3.981-1.399-4.97-8.087-5.199h-4.555V35.25zM54 56c2.21 0 4-1.79 4-4s-1.79-4-4-4-4 1.79-4 4 1.79 4 4 4z"/>
    </g>
</svg>
