<svg xmlns="http://www.w3.org/2000/svg" width="52" height="52" viewBox="0 0 52 52">
    <g fill="none" fill-rule="evenodd" stroke-width="2">
        <rect width="50" height="50" x="1" y="1" stroke="#565E56" rx="25"/>
        <path stroke="#ECF805" stroke-linecap="round" d="M26.5 16c-1.519 0-2.894.616-3.89 1.61-.994.996-1.61 2.371-1.61 3.89 0 1.31.457 2.511 1.221 3.455-1.03.558-1.925 1.338-2.623 2.275C18.595 28.58 18 30.255 18 32.071c0 .686.257 1.304.75 1.84.418.457 1.026.857 1.781 1.173C21.97 35.685 23.983 36 26 36c2.017 0 4.03-.315 5.469-.916.755-.316 1.363-.716 1.782-1.173.492-.536.749-1.154.749-1.84 0-1.679-.509-3.238-1.377-4.529-.584-.867-1.33-1.612-2.194-2.193.294-.3.555-.635.775-.997.505-.832.796-1.808.796-2.852 0-1.519-.616-2.894-1.61-3.89-.996-.994-2.371-1.61-3.89-1.61z"/>
    </g>
</svg>
