<svg xmlns="http://www.w3.org/2000/svg" width="64" height="64" viewBox="0 0 64 64">
    <g fill="none" fill-rule="evenodd" stroke="#ECF805">
        <rect width="60" height="60" x="2" y="2" stroke-width="4" rx="30"/>
        <path stroke-linecap="round" stroke-width="2" d="M32.5 18c-2.071 0-3.946.84-5.303 2.197C25.839 21.554 25 23.429 25 25.5c0 1.436.404 2.778 1.104 3.918.358.584.795 1.115 1.294 1.579-1.605.733-3.001 1.839-4.076 3.204C21.867 36.05 21 38.374 21 40.9c0 .863.334 1.64.964 2.313.563.601 1.382 1.123 2.395 1.539C26.37 45.575 29.182 46 32 46c2.818 0 5.631-.425 7.64-1.25 1.014-.415 1.833-.937 2.396-1.538.63-.674.964-1.45.964-2.313 0-2.397-.782-4.615-2.107-6.415-.962-1.307-2.21-2.394-3.655-3.17.591-.482 1.108-1.053 1.529-1.692.78-1.183 1.233-2.6 1.233-4.122 0-2.071-.84-3.946-2.197-5.303C36.446 18.839 34.571 18 32.5 18z"/>
    </g>
</svg>
