<svg xmlns="http://www.w3.org/2000/svg" width="196" height="196" viewBox="0 0 196 196">
    <g fill="none" fill-rule="evenodd">
        <path fill="#000" d="M0 0H196V196H0z"/>
        <g fill="#FFF">
            <path d="M23.948 50.818c13.226 0 23.947-10.722 23.947-23.948S37.174 2.922 23.948 2.922C10.72 2.922 0 13.644 0 26.87S10.72 50.818 23.948 50.818M59.869 146.21c-6.613 0-11.974-5.362-11.974-11.975V79.947c0-8.275 4.33-15.77 11.942-20.214l.13-.076c.096-.054.128-.176.073-.272-.054-.095-.178-.128-.273-.072C39.82 70.861 19.722 82.463 0 93.821v20.133h.038c-.006.246-.038.473-.038.724 0 17.635 14.296 31.93 31.93 31.93H59.87c.11 0 .2-.09.2-.2 0-.11-.09-.199-.2-.199M131.712 146.21c-6.613 0-11.974-5.362-11.974-11.975V68.135C119.738 27.562 95.47.927 61.865.927h-1.996c-.11 0-.2.089-.2.2 0 .11.09.199.2.199 6.613 0 11.974 5.36 11.974 11.974v101.378c0 17.635 14.296 31.93 31.93 31.93h27.939c.11 0 .2-.09.2-.2 0-.11-.09-.199-.2-.199" transform="translate(35.219 24.5)"/>
        </g>
    </g>
</svg>
